<?xml version="1.0" encoding="utf-8"?>
<!-- Generator: Adobe Illustrator 21.0.2, SVG Export Plug-In . SVG Version: 6.00 Build 0)  -->
<svg version="1.1" xmlns="http://www.w3.org/2000/svg" xmlns:xlink="http://www.w3.org/1999/xlink" x="0px" y="0px"
	 viewBox="0 0 501.3 165.3" style="enable-background:new 0 0 501.3 165.3;" xml:space="preserve">
<style type="text/css">
	.st0{fill-rule:evenodd;clip-rule:evenodd;fill:#80CCF3;}
	.st1{fill-rule:evenodd;clip-rule:evenodd;fill:#00A4DD;}
	.st2{fill-rule:evenodd;clip-rule:evenodd;fill:#0075B8;}
	.st3{fill-rule:evenodd;clip-rule:evenodd;fill:#AB85B4;}
	.st4{fill-rule:evenodd;clip-rule:evenodd;fill:#743B8D;}
	.st5{fill-rule:evenodd;clip-rule:evenodd;fill:#372C65;}
	.st6{fill-rule:evenodd;clip-rule:evenodd;fill:#EF9BBE;}
	.st7{fill-rule:evenodd;clip-rule:evenodd;fill:#C32B75;}
	.st8{fill-rule:evenodd;clip-rule:evenodd;fill:#F2AF89;}
	.st9{fill-rule:evenodd;clip-rule:evenodd;fill:#CF2D1E;}
	.st10{fill-rule:evenodd;clip-rule:evenodd;fill:#AFCF95;}
	.st11{fill-rule:evenodd;clip-rule:evenodd;fill:#196733;}
	.st12{fill-rule:evenodd;clip-rule:evenodd;fill:#FFFFFF;}
	.st13{fill-rule:evenodd;clip-rule:evenodd;fill:#3AA438;}
	.st14{fill-rule:evenodd;clip-rule:evenodd;fill:#E64E23;}
	.st15{fill-rule:evenodd;clip-rule:evenodd;fill:#E6007E;}
</style>
<g id="Dummy_x0025_Layer_x0025_Dummy_x0025_Layer">
</g>
<g id="Layer_2">
	<g>
		<path class="st0" d="M82.7,78.9c-7.4-6.3-16.9-10-27.4-10c-23.5,0-42.7,19.1-42.7,42.6c0,17.3,10.4,32.2,25.2,38.9
			c-4-6.8-6.3-14.5-6.4-22.6c-2.3-4.8-3.6-10.2-3.6-15.8c0-20.7,16.7-37.4,37.4-37.4c6,0,11.7,1.4,16.8,4c-0.4,0.1-0.6,0.2-1,0.3
			C81.5,79,82.1,78.9,82.7,78.9z"/>
		<g>
			<path class="st1" d="M82,78.7c-0.4,0.1-0.6,0.2-1,0.3c-27.6,2.3-49.2,22.9-49.6,48v0.7c0,0,0.1,0.1,0.1,0.1
				c4.3,9.2,12.4,16.4,22.2,19.7c-3.7-6.8-5.8-14.6-5.8-22.9C47.9,103,62.3,84.6,82,78.7L82,78.7L82,78.7z M31.4,127
				c0,0.1,0,0.3,0,0.5c0,0.1,0,0.1,0,0.2V127L31.4,127z"/>
		</g>
		<path class="st2" d="M82,78.7c-5-2.6-10.7-4-16.8-4c-20.7,0-37.4,16.7-37.4,37.4c0,5.6,1.3,11,3.6,15.8c0-0.1-0.1-0.2-0.1-0.4
			c0-25.3,21.8-46.2,49.6-48.5C81.3,78.9,81.6,78.8,82,78.7z"/>
		<path class="st3" d="M76.7,82.4c-8,5.3-14.3,13.5-17.3,23.5c-6.7,22.6,6.2,46.4,28.6,53c16.6,4.9,33.8-0.7,44.5-13.1
			c-7.6,2-15.6,2-23.5-0.2c-5.3,0.8-10.8,0.5-16.3-1.2c-19.7-5.8-31-26.6-25-46.4c1.7-5.8,4.8-10.9,8.6-15c0,0.4,0,0.7,0,1.1
			C76.5,83.6,76.6,83,76.7,82.4z"/>
		<g>
			<path class="st4" d="M76.4,83.1c0,0.4,0,0.7,0,1.1c-0.7,3.5-1.2,7.1-1.2,10.6v3.6c0.6,22,13.5,41.2,33.6,47.2
				c0.1,0,0.2,0,0.4,0.1c10.1-1.6,19.2-7.2,25.1-15.8c-7.6,1.7-15.6,1.4-23.5-0.9C89.9,122.8,76.4,103.8,76.4,83.1L76.4,83.1
				L76.4,83.1z M109.1,145.6c-0.6,0.1-1.2,0.1-1.8,0.2C107.9,145.8,108.5,145.7,109.1,145.6L109.1,145.6z"/>
		</g>
		<path class="st5" d="M76.4,83.1c-3.8,4.2-6.8,9.2-8.6,15c-5.9,19.7,5.4,40.5,25,46.4c5.5,1.7,11,1.9,16.3,1.2
			c-0.1-0.1-0.2-0.1-0.4-0.1c-24.3-7.3-38-34-32.4-61.4C76.4,83.8,76.4,83.5,76.4,83.1z"/>
		<path class="st6" d="M78.3,89.4c2.6,9.4,8.4,17.9,16.9,23.8c19.4,13.3,46,8.3,59.3-11.1c9.9-14.3,9.7-32.4,1.3-46.3
			c-0.5,7.8-2.9,15.5-7.5,22.2c-0.9,5.3-2.8,10.4-6,15.1c-11.7,17-34.9,21.3-51.9,9.6c-5-3.5-8.9-7.9-11.6-12.9
			c0.3,0.1,0.6,0.2,1,0.3C79.3,90,78.8,89.7,78.3,89.4z"/>
		<path class="st7" d="M78.8,90c2.7,5,6.6,9.4,11.6,12.9c17,11.7,40.2,7.3,51.9-9.6c3.2-4.7,5.2-9.9,6-15.1
			c-0.1,0.1-0.1,0.2-0.2,0.3c-14.3,20.9-44.1,25.8-68.3,11.9C79.5,90.2,79.1,90.2,78.8,90z"/>
		<path class="st8" d="M85.2,89.6c9.7,0.5,19.6-2.3,27.9-8.6c18.8-14.2,22.5-41,8.2-59.7C110.9,7.4,93.6,1.8,77.8,5.4
			c7.3,2.9,13.7,7.6,18.8,14c4.7,2.5,8.9,6,12.4,10.6c12.5,16.4,9.2,39.8-7.2,52.3c-4.8,3.7-10.2,6-15.8,7c0.2-0.3,0.4-0.6,0.6-0.9
			C86.1,88.8,85.6,89.2,85.2,89.6z"/>
		<path class="st9" d="M85.9,89.3c5.6-1,11-3.3,15.8-7c16.4-12.5,19.7-35.8,7.2-52.3c-3.5-4.5-7.7-8.1-12.4-10.6
			c0.1,0.1,0.1,0.2,0.2,0.4c15.3,20.2,10.5,50-10.3,68.6C86.4,88.7,86.2,89,85.9,89.3z"/>
		<path class="st10" d="M87.2,82.3c3.3-9.1,3.6-19.4,0-29.2c-8-22.1-32.4-33.5-54.6-25.5c-16.3,5.9-26.8,20.7-28,36.9
			c5-6.1,11.4-10.9,19-13.7c3.8-3.8,8.4-6.8,13.7-8.8c19.4-7,40.7,3,47.7,22.3c2.1,5.8,2.7,11.6,2,17.3c-0.2-0.3-0.4-0.6-0.6-0.9
			C86.7,81.2,87,81.8,87.2,82.3z"/>
		<path class="st11" d="M87.2,81.6c0.6-5.7,0.1-11.5-2-17.3C78.2,44.9,56.8,35,37.4,42c-5.3,1.9-9.9,5-13.7,8.8
			c0.1-0.1,0.3-0.1,0.4-0.1c23.8-8.6,50.8,4.7,62.5,30.1C86.7,81,86.9,81.3,87.2,81.6z"/>
		<path class="st12" d="M449.4,72.1c-2.3,3.9-6.2,8.4-9.2,8.4c-1.3,0-2.6-0.3-3.8-0.8c-1.9-0.8-3.8-1.6-5.7-2.4
			c-0.8-0.3-1.8-0.5-2.9-0.5c-1.2,0-2.2,0.3-3,1c-0.7,0.7-2.4,1.2-3.6,3.1c-0.8-0.7-1.6-1.5-2.4-2.2c2.4-4.1,6-7.5,8.8-8.3
			c1.2-0.3,3.3-0.4,4.4,0.1c2.1,0.9,5.3,1.8,7.3,2.7c0.9,0.3,1.8,0.4,2.7,0.4c2.1,0,2.4-0.9,5.1-3.5
			C447.7,70.7,448.7,71.4,449.4,72.1z"/>
		<g>
			<path class="st12" d="M292.1,24.1c-5.6,0-9.3,1.9-9.3,5.6v30.8c0,7.6-1.6,13.2-6.8,16.8c-4,2.8-9.1,4.2-15.3,4.2
				c-6.5,0-12.1-0.4-15.8-3.4c-4.5-3.6-6.3-10.5-6.3-18.3V29.9c0-3.8-2.6-5.6-7.8-5.6v-2.8h24.7v2.8c-5.3,0-6.7,1.8-6.7,5.3l0.2,31
				c0,5.3,1,9.2,3,11.9c2.5,3.3,5.3,4.9,11.1,4.9c11.1,0,14.3-5.5,14.3-17V30.1c0-3.9-1.8-6.1-7.4-6.1v-2.6h22.1V24.1z"/>
			<path class="st12" d="M328.6,67.6l-1.4,13.1h-39.7v-2.3c4.1,0,6.9-2.4,6.9-6.3c0-14.5,0-29.1,0-43.7c-0.8-3.7-0.7-2.7-4-3.5v-3.3
				h37.1v12.9h-3c-0.7-3.2-1.3-5.5-2.5-6.9c-1.2-1.4-3-2.3-5.4-2.2l-9.3,0.7c-2.5,0.1-2.9,1.2-2.9,3.7v14.9H322c5.9,0,4.4,4.6,0,4.8
				l-17.4,0.7l-0.1,22.4c0,1.8-0.5,2.8,0.3,3.2c0.3,0.2,1.1,0.3,2.4,0.3h10.7c6.4-1.1,7.7-3.6,8.8-8.5H328.6z"/>
			<path class="st12" d="M375.9,62.4c0,6.1-3.9,12-8.7,14.7c-3.4,2.1-7.7,3.6-12.9,3.6h-1.6v-4c8.6-1.7,11.8-5,11.8-13.5
				c0-4.2-0.9-6.8-4-9c-2.1-1.5-4.5-2.4-7.7-2.8V46l0.9-0.1c7.1-4.7,6.9-7.7,6.9-11.8c-0.5-4.6-1.5-7.9-7.9-8.8v-3.8
				c12.7,0.1,19.1,1.8,19.1,11.2c0,6.9-3.6,9.9-9.6,12.7c3.6,0.5,7.9,3.6,10.6,6.1C375.6,54.2,375.9,58.6,375.9,62.4z M352.7,80.7
				h-24.4v-3c5.1,0,7.7-1.1,7.7-5.1V28.9c0-3.8-2.6-4.5-7.7-4.5v-3h22.2c0.7,0,1.5,0,2.2,0v3.8c-1.1-0.1-2.3-0.3-3.8-0.3
				c-1.7,0-2,0.1-2.5,0.3c-1,0.4-1.5,1.3-1.5,2.9v18.2l7.8-0.4v5.6c-1.2-0.2-2.6-0.3-4-0.3h-3.8v22c0,1.8,0.9,2.8,2.9,3.3
				c0.8,0.2,1.8,0.7,4.2,0.3c0.2,0,0.5-0.1,0.7-0.1V80.7z"/>
			<path class="st12" d="M416.6,67.4L414.5,81h-41.8v-3.2c4.4,0,7.8-1.1,7.8-5.1V28.9c0-3.8-3-4.6-7.4-4.6v-3.2h25.6v3.2
				c-4.4,0-7.7,0.8-7.7,4.8v44c0,2.4,0.3,3.5,6.5,3.5c5.9,0,10-0.7,12.5-2.2c2.5-1.5,2.6-2.1,4.4-6.9H416.6z"/>
			<path class="st12" d="M450.3,42.7c0,6.1-1.8,11.3-4.6,15.4c-2.8,4.1-9.5,6.7-14,6.9v-4.8c3.4,0,4-0.5,5.7-3.4
				c2-3.4,2.4-7.9,2.4-13.2c0-5.5,0.1-8.9-1.5-12.4c-1.7-4-2.8-5.3-6.1-5.3h-0.6V21c4.6,0,10.5,0.7,13.9,4
				C449.9,29.1,450.3,36.3,450.3,42.7z M431.7,64.9c-0.1,0-0.2,0-0.3,0c-4.6,0-11.2,0-14.1-4.2c-2.8-4-4.2-9.2-4.2-15.3
				c0-6.3,2.7-13.5,5.5-17.5c2.9-4,8.1-6.9,12.7-6.9c0.1,0,0.3,0,0.5,0v4.8c-3.1,0-3.6,0.3-5.3,3.8c-1.6,3.4-2.9,7.9-2.9,13.8
				c0,5.6,0.5,9.2,2.2,12.7c1.8,3.8,2.8,3.9,5.9,3.9h0.1V64.9z"/>
			<path class="st12" d="M491.7,64.3c0.3,5.5-3.3,9.6-7.2,12.7c-1.5,1.3-8.8,4.2-14.5,4.7c-9,0.7-19.5-1.8-17.1-2l0.1-12h2
				c3.7,10.4,7.9,9.6,16.5,9.6c2.6,0,5-0.7,7.1-2.3c2.4-1.8,3.4-4.2,3.4-7.3c0-5-2.7-7.6-9-10.9l-8.5-4.5
				c-7.3-3.8-11.6-7.3-11.6-13.2c0-4.6-0.2-9,5.7-13.7c3.2-2.5,6.4-4.5,11-4.8c9-0.5,13.1-0.6,19.7,1.9l-0.9,11.8h-2.1
				c-0.9-5.4-4.9-9.4-12.8-9.4c-2.5,0-5.2,0.8-6.9,2.3c-1.8,1.5-3.8,2.6-3.8,5.2c0,2.4,1,6.2,3.2,8.3c1.3,1.2,3,2.3,6.7,4.1l8.6,4.1
				C488.9,52.5,491.2,54,491.7,64.3z"/>
			<path class="st12" d="M233.2,36.8c-0.9,5.6-3.8,10.2-9,13.3c-4.3,2.6-7.7,3.2-13.5,3l-3-0.1v-3.6c1.1-0.7,2.8-0.5,3.4-0.5
				c9.4-1.6,11-4,11-12.9c0-8.9-4.4-10.2-15.5-10.2c-1.3,0-2.3,0.1-2.7,0.5c-0.6,0.5-0.9,1.5-0.9,3.3c0,15.6-0.2,29.4-0.2,44.9
				c0,3.7,4.2,3.4,9.6,3.4v3H186v-3c5.3,0,7.9,0.1,7.9-3.8l-0.1-45c0-2-0.1-2.3-1.1-3.2c-1.1-1-3.3-1.5-6.3-1.5l-0.3-2.8h23.9
				c7.2,0,14.1,0.4,18.1,3C232.4,27.3,233.2,31.1,233.2,36.8z"/>
		</g>
		<g>
			<path class="st12" d="M260,152.9l-15.6-0.6c-3.8-0.1-3.2-30.1-6.4-49.8c-5.6,16.1-12.2,32.3-17.7,48.3c-1.9,0.9-3.6,1.1-5.7,0.1
				l-19.1-49.6l-1.8,42.9c-0.1,3.6,1.8,6.3,6.9,6.3v1.7l-19.4,0.3l0.5-2.6c5.3,0,6.5-1.7,6.8-5.7l3-42.4c0.3-3.8-1.5-5.5-6.8-5.5
				l0.3-3.2l17.8-0.5l17.4,44.6L237,93.9l18.3-0.6l-0.1,3.6c-4.2,0.7-6.5,0.1-6.3,2.7l2.2,42.1c0.5,7.7,4.2,8.3,9,8.3L260,152.9z"/>
			<path class="st12" d="M295,86.3c0,0.6-1.8,1.7-4,2.2l-10.5,2.3l-4.2-0.3l9.1-5c2-1.1,4.2-1.2,5.9-0.9
				C291.9,84.6,295,86.1,295,86.3z"/>
			<path class="st12" d="M343.4,148.9c-7.1,4.2-15.6,5.8-20.7,5.8c-8.2,0-14.7-3.1-19.6-9.4c-4.4-5.6-6.5-12.5-6.5-20.8
				c0-9,2.2-14.4,7.1-20.3c4.8-5.9,10.6-9.9,17.6-11.2c6.5-1.3,10.6-1.9,19.7,1.8l-0.5,11.4h-1.8C335.8,96,326.9,98,323.1,98
				c-5.5,0-9.2,4.1-12.3,9.4c-2.8,4.8-2.9,10.8-2.9,18.8c0,7.7,1.5,11.4,4.8,16.6c3.3,5.1,6.8,6.7,12.4,6.7c2.4,0,8.6-1.6,8.8-6.1
				l0.1-5.9c0.1-4,0.9-6.2-8.5-6.2v-3h18.7L343.4,148.9z"/>
			<path class="st12" d="M373,152h-26.5v-2.2c5.8,0,7.9-1.5,7.9-5.5V102c0-3.8-2.1-5.8-7.9-5.8v-3H373v3c-5.8,0-8.7,2-8.7,5.8v42.3
				c0,4,2.9,5.5,8.7,5.5V152z"/>
			<path class="st12" d="M417.2,147.2c-7.7,4.9-13.3,6.5-21.5,6.5c-3.8,0-12.3-2.2-17-8.2c-4.6-5.7-4.8-13.6-4.8-22.4
				c0-8.5,1.6-14.7,6.5-20.7c4.8-5.9,8.1-7.5,14.9-9c6.7-1.5,15.7-1,21.6,0c2.7,3.2-0.7,8.1-0.1,12.7c-0.6,1.3-1.3,1.3-1.9,0
				c-1.1-6.1-4.8-8.8-14.3-8.8c-5.8,0-8.4,1.4-11.6,6.6c-3,4.9-4.4,11.4-4.4,19.3c0,7.7,1.9,14.1,5.2,19.1c3.2,4.9,7.9,6.2,11.9,6.3
				c4.4,0.1,9.5-0.9,14.8-4.2C418.4,143.7,418.7,145,417.2,147.2z"/>
			<path class="st12" d="M455.9,115c0,6.1-1.8,11.3-4.6,15.4c-2.8,4.1-9.5,6.7-14,6.9v-4.8c3.4,0,4-0.5,5.7-3.4
				c2-3.4,2.4-7.9,2.4-13.2c0-5.5,0.1-8.9-1.5-12.4c-1.7-4-2.8-5.3-6.1-5.3h-0.6v-4.8c4.6,0,10.5,0.7,13.9,4
				C455.5,101.4,455.9,108.6,455.9,115z M437.3,137.3c-0.1,0-0.2,0-0.3,0c-4.6,0-11.2,0-14.1-4.2c-2.8-4-4.2-9.2-4.2-15.3
				c0-6.3,2.7-13.5,5.6-17.5c2.8-4,8-6.9,12.6-6.9c0.2,0,0.3,0,0.5,0v4.8c-3.1,0-3.6,0.3-5.3,3.8c-1.5,3.4-2.9,7.9-2.9,13.8
				c0,5.6,0.5,9.2,2.2,12.7c1.8,3.8,2.8,3.9,5.9,3.9h0.1V137.3z"/>
			<path class="st12" d="M453.1,144.9c-2.3,3.9-6.2,8.4-9.1,8.4c-1.4,0-2.6-0.3-3.8-0.8c-1.9-0.8-3.8-1.6-5.7-2.4
				c-0.8-0.3-1.8-0.5-2.9-0.5c-1.2,0-2.2,0.3-3,1c-0.8,0.7-2.5,1.2-3.6,3.1c-0.8-0.7-1.6-1.5-2.4-2.2c2.4-4.1,6-7.5,8.7-8.3
				c1.2-0.3,3.4-0.4,4.4,0.1c2.1,0.8,5.3,1.8,7.3,2.6c0.9,0.3,1.8,0.4,2.7,0.4c2.1,0,2.4-0.9,5.1-3.4
				C451.5,143.4,452.5,144.1,453.1,144.9z"/>
			<path class="st12" d="M295,144.9c-2.3,3.9-6.2,8.4-9.1,8.4c-1.4,0-2.6-0.3-3.8-0.8c-1.9-0.8-3.8-1.6-5.7-2.4
				c-0.8-0.3-1.8-0.5-2.9-0.5c-1.2,0-2.2,0.3-3,1c-0.8,0.7-2.5,1.2-3.6,3.1c-0.8-0.7-1.6-1.5-2.4-2.2c2.4-4.1,6-7.5,8.7-8.3
				c1.2-0.3,3.4-0.4,4.4,0.1c2.1,0.8,5.3,1.8,7.3,2.6c0.9,0.3,1.8,0.4,2.7,0.4c2.1,0,2.4-0.9,5-3.4
				C293.4,143.4,294.4,144.1,295,144.9z"/>
			<path class="st12" d="M497.1,137.1c0.3,5.6-3.3,9.6-7.2,12.7c-1.5,1.2-8.8,4.2-14.6,4.6c-9,0.7-19.5-1.7-17.1-2l0.1-11.9h2
				c3.8,10.4,8,9.5,16.5,9.5c2.6,0,5.1-0.7,7.1-2.3c2.4-1.8,3.4-4.2,3.4-7.1c0-5-2.6-7.6-8.9-10.9l-8.6-4.5
				c-7.3-3.8-11.6-7.3-11.6-13.3c0-4.6-0.2-8.9,5.7-13.6c3.2-2.6,6.4-4.6,11.1-4.8c9-0.5,13.1-0.5,19.7,2l-0.9,11.8h-2.2
				c-0.8-5.5-4.9-9.4-12.7-9.4c-2.5,0-5.2,0.7-6.9,2.3c-1.7,1.5-3.8,2.5-3.8,5.2c0,2.3,1.1,6.2,3.2,8.2c1.3,1.2,3,2.4,6.7,4.1
				l8.6,4.2C494.4,125.3,496.5,126.8,497.1,137.1z"/>
			<path class="st12" d="M280.3,126.1c-1.4,2.1-4,5.5-7.5,7.9v-6c1.3-0.7,2.7-2,4-4c3-3.4,4.2-17.2,4.2-21.9c0.5-3-2.5-3.6-6.7-3.4
				c-0.5,0.1-1,0.3-1.5,0.4v-5.7c0.5-0.1,1.1-0.2,1.7-0.3c8.4-0.5,14.1,0.1,19.8,2.3c-1,3.1-3.3,2.9-4,5.9c-2.6,11.2-1.4,24.4,2,34
				l-8.1,1.3C279.3,136.5,281.4,129.4,280.3,126.1z M272.8,134.1c-2.1,1.5-4.5,2.8-7.2,3.3c-8.3,1.4-9.2-7.5-9.3-13.6v-0.5
				c0-1.2,0.1-2.3,0.1-3.2c0-6.1,1.8-13.9,5.3-18.5c3-4,7.2-7.1,11.2-8v5.7c-3,0.9-5,2.6-6.4,5.9c-2,9.1-3.2,13.8,0.7,22.2
				c1.5,1.6,3.5,1.9,5.7,0.7V134.1z"/>
		</g>
		<path class="st13" d="M86.1,79.9c0.4,0.4,0.7,0.9,1.1,1.4c-0.2-0.3-0.4-0.5-0.6-0.9C75,55.3,48.3,41.9,24.6,50.1
			c-0.1,0-0.2,0.1-0.2,0.1l0.1-0.1c0,0-0.1,0-0.1,0.1c-0.1,0-0.1,0-0.2,0.1c-0.1,0-0.1,0.1-0.2,0.1c0,0,0,0.1-0.1,0.1
			c-7.2,7.2-11.2,17.2-11,27.5c0,0,0,0,0,0v0.4c3.2-3.7,7.1-6.8,11.5-9.4c2.4-1.5,5.1-2.7,8-3.8c20.4-7.4,42.5-0.1,54.8,16.5
			c-0.2-0.3-0.4-0.6-0.6-0.9C86.4,80.5,86.3,80.2,86.1,79.9z"/>
		<path class="st14" d="M86.3,88.7c0.1-0.1,0.2-0.2,0.2-0.4c0,0,0,0-0.1,0.1C86.5,88.5,86.4,88.6,86.3,88.7z M99.9,24.4
			c-0.2-0.3-0.3-0.6-0.5-0.8c-0.1-0.1-0.2-0.3-0.2-0.4c-0.6-1-1.3-2.1-2-3.1c-0.1-0.1-0.2-0.2-0.3-0.4c0,0-0.1-0.1-0.1-0.1
			c0.2,0.1,0.4,0.2,0.6,0.3c0.2,0.1,0.5,0.3,0.8,0.4c-0.3-0.1-0.6-0.4-0.8-0.5c-0.3-0.1-0.6-0.3-0.8-0.4v0.1c0,0,0,0-0.1,0
			c-9-4.8-19.8-5.6-29.5-2.3c0.1,0,0.1,0.1,0.2,0.1c0,0-0.1,0-0.1,0c6.5,3,12.5,7.5,17.3,13.4c0.3,0.4,0.7,0.8,1,1.2
			C98.4,49.3,98,72.6,85.8,89.2c0.2-0.3,0.4-0.6,0.6-0.8c0.1-0.1,0.3-0.3,0.4-0.4c-0.1,0.1-0.2,0.3-0.3,0.4
			c4.3-3.9,7.9-8.2,10.8-12.7c5.3-8.5,8.2-18,8.4-27.4v-2.4C105.6,38.4,103.7,31,99.9,24.4z"/>
		<path class="st15" d="M79.6,90.3c-0.3-0.1-0.6-0.2-0.8-0.2C79,90.1,79.3,90.2,79.6,90.3z M141.2,49.3c0,0.1,0,0.2,0,0.2
			c0,0,0-0.1-0.1-0.1c-0.8,7.6-3.5,15.3-8.2,22c-4.5,6.5-10.3,11.6-16.8,15.1c-0.1,0-0.2,0.1-0.3,0.1c-0.3,0.2-0.6,0.3-0.9,0.5
			c-0.3,0.1-0.6,0.3-0.9,0.4c-0.1,0.1-0.3,0.1-0.4,0.2c-10.8,5-23.2,5.9-34.7,2.2c0.3,0.1,0.6,0.2,0.8,0.3c0,0-0.1,0-0.1,0
			c0.1,0,0.2,0,0.2,0.1c0,0,0,0,0,0c0,0,0.1,0,0.1,0c0,0,0,0,0,0c0,0-0.1,0-0.1,0c19.6,11.2,42.8,10.2,58.5-1.7c0,0,0,0,0,0
			c0.3-0.2,0.5-0.4,0.8-0.6c3.3-2.6,6.3-5.7,8.8-9.2c0.1-0.1,0.2-0.2,0.3-0.4c0,0,0,0,0,0c0,0.2-0.1,0.5-0.1,0.7
			c-0.1,0.4-0.1,0.6-0.1,0.9c0-0.3,0.1-0.6,0.1-0.9c0.1-0.2,0.1-0.5,0.1-0.8c0,0,0.1-0.1,0.1-0.1c0,0,0-0.1,0-0.2
			C150.1,68,147.5,57.5,141.2,49.3z"/>
	</g>
</g>
</svg>
