<?xml version="1.0" encoding="utf-8"?>
<!-- Generator: Adobe Illustrator 23.0.1, SVG Export Plug-In . SVG Version: 6.00 Build 0)  -->
<svg version="1.1" id="Capa_1" xmlns="http://www.w3.org/2000/svg" xmlns:xlink="http://www.w3.org/1999/xlink" x="0px" y="0px"
	 viewBox="0 0 157.77 57.3" style="enable-background:new 0 0 157.77 57.3;" xml:space="preserve">
<style type="text/css">
	.st0{fill:#F9F9F9;}
	.st1{fill:#FFFFFF;}
</style>
<title>Asorted_Icons_01_90x90</title>
<g>
	<g>
		<path class="st0" d="M26.71,38.2V20l-7,18.2h-5.5L7.81,20v18.2h-6V12.7h9.9l5.6,16.3l5.6-16.3h9.9v25.5H26.71z"/>
		<path class="st0" d="M41.01,28.1c0.3,2.8,2.3,4.7,5.5,4.7c2,0,4.1-0.9,5.6-2.6l4.4,3.8c-2.7,3.1-6.1,4.5-9.9,4.5
			c-7.4,0-11.9-4.9-11.9-13.3c0-7.5,4.7-12.8,11.2-12.8c6.6,0,11,4.5,11,11.6v4.1L41.01,28.1L41.01,28.1z M45.81,18.2
			c-2.4,0-4.5,1.9-4.8,4.2h9.4C50.11,20.4,48.81,18.2,45.81,18.2z M47.31,10.9l-5.2-2.4l3.2-6.9l5.2,2.4L47.31,10.9z"/>
		<path class="st0" d="M73.21,38.2l-4.9-7.6l-4.9,7.6h-7.2l8.7-13l-8.3-12.5h7.2l4.5,7.4l4.5-7.4h7.2l-8.3,12.5l8.8,13H73.21z"/>
		<path class="st0" d="M82.01,38.2V12.7h6v25.5H82.01z"/>
		<path class="st0" d="M107.21,21.3c-1.6-1.9-3.1-2.8-5-2.8c-3.7,0-5.6,2.4-5.6,7s1.9,7,5.6,7c2.2,0,3.9-1.1,5-2.8l4.5,4
			c-2.3,3-5.6,4.9-9.5,4.9c-7.5,0-11.8-4.7-11.8-13c0-8,4.5-13,11.8-13c4.1,0,7,1.7,9.5,4.8L107.21,21.3z"/>
		<path class="st0" d="M123.51,38.5c-7.2,0-11.7-5-11.7-13c0-7.7,4.8-13,11.7-13s11.6,5.3,11.6,13
			C135.21,33.5,130.71,38.5,123.51,38.5z M123.51,17.9c-3.8,0-5.5,3.8-5.5,7.5c0,3.5,1.4,7.7,5.5,7.7s5.5-4.1,5.5-7.7
			C129.01,21.7,127.31,17.9,123.51,17.9z"/>
	</g>
	<g>
		<g>
			<path class="st1" d="M4.21,49.5c0-5,3.6-9.9,7.4-9.9c1.6,0,2.4,1,2.5,1.6l0.6-5.2h4.8l-2.1,17.6h-5l0.4-3.1h-0.1
				c-1,1.9-2.4,3.4-4.7,3.4C5.51,54,4.21,52.5,4.21,49.5z M13.61,44.4c0-1.3-0.3-2-1.1-2c-1.6,0-3.3,3.5-3.3,6.5c0,1.3,0.3,2,1.1,2
				C11.91,50.9,13.61,47.4,13.61,44.4z"/>
			<path class="st1" d="M29.51,49.2l2.6,1.6c-1.3,2.2-3.5,3.2-6.2,3.2c-4.4,0-6.1-2.5-6.1-5.7c0-5.3,3.6-8.7,8.1-8.7
				c2.7,0,5.2,1.1,5.2,3.6c0,4-5.5,4.7-8.4,4.9v0.3c0,1.6,0.6,2.6,2,2.6C27.91,51,28.81,50.1,29.51,49.2z M24.81,46.2
				c2.5-0.2,3.7-1.6,3.7-3c0-0.7-0.3-1.1-0.9-1.1C26.41,42.2,25.21,43.8,24.81,46.2z"/>
			<path class="st1" d="M32.91,50.8l2.7-1.6c0.9,1.2,2.1,1.7,3,1.7c0.6,0,1.1-0.3,1.1-0.8c0-0.6-0.8-1.1-1.8-1.7
				c-1.5-0.9-3.5-2.1-3.5-4.4s2.1-4.5,5.6-4.5c2,0,4.1,0.7,5.4,2.5l-2.7,1.6c-0.8-0.9-1.6-1.1-2.5-1.1c-0.7,0-1.3,0.3-1.3,0.8
				s0.7,0.9,1.6,1.4c1.6,1,3.8,2.3,3.8,5c0,2.1-1.6,4.2-5.3,4.2C35.91,53.9,33.91,52.5,32.91,50.8z"/>
			<path class="st1" d="M45.71,48.1c0-5,3.1-8.6,7.8-8.6c2.5,0,4.3,1.1,5.2,2.9l-2.8,1.6c-0.4-0.9-0.9-1.5-1.9-1.5
				c-1.9,0-3.1,2.3-3.1,5.8c0,1.8,0.5,2.6,1.6,2.6c1.3,0,2.1-1,2.7-1.9l2.7,1.6c-1.2,2-3.1,3.3-5.8,3.3
				C47.11,54,45.71,50.8,45.71,48.1z"/>
			<path class="st1" d="M58.71,47.9c0-4.5,2.8-8.4,8.2-8.4c3.7,0,6.2,1.8,6.2,6c0,4.5-2.8,8.4-8.3,8.4
				C61.21,54,58.71,52.2,58.71,47.9z M68.01,45c0-1.9-0.5-2.8-1.4-2.8c-1.6,0-2.8,2.8-2.8,6.4c0,1.9,0.5,2.8,1.4,2.8
				C66.81,51.4,68.01,48.5,68.01,45z"/>
			<path class="st1" d="M75.81,40h5l-1.4,7.3h0.1c1.9-6.5,4.2-7.7,6-7.7c2.7,0,3.8,2,3.4,5.2l-1.1,8.8h-5l0.9-7.9
				c0.1-1.1,0.1-2.2-0.8-2.2c-1.8,0-3,4.9-3.8,10h-5L75.81,40z"/>
			<path class="st1" d="M90.21,47.9c0-4.5,2.8-8.4,8.2-8.4c3.7,0,6.2,1.8,6.2,6c0,4.5-2.8,8.4-8.3,8.4
				C92.71,54,90.21,52.2,90.21,47.9z M99.51,45c0-1.9-0.5-2.8-1.4-2.8c-1.6,0-2.8,2.8-2.8,6.4c0,1.9,0.5,2.8,1.4,2.8
				C98.31,51.4,99.51,48.5,99.51,45z"/>
			<path class="st1" d="M105.81,48.1c0-5,3.1-8.6,7.8-8.6c2.5,0,4.3,1.1,5.2,2.9l-2.8,1.6c-0.4-0.9-0.9-1.5-1.9-1.5
				c-1.9,0-3.1,2.3-3.1,5.8c0,1.8,0.5,2.6,1.6,2.6c1.3,0,2.1-1,2.7-1.9l2.7,1.6c-1.2,2-3.1,3.3-5.8,3.3
				C107.21,54,105.81,50.8,105.81,48.1z"/>
			<path class="st1" d="M123.81,53.6h-5l1.6-13.7h5L123.81,53.6z M120.92,35.98c0-1.46,1.2-2.4,2.57-2.4c1.2,0,2.31,0.77,2.31,2.14
				c0,1.46-1.2,2.4-2.57,2.4C122.03,38.04,120.92,37.26,120.92,35.98z"/>
			<path class="st1" d="M126.01,49.5c0-5,3.6-9.9,7.4-9.9c1.6,0,2.4,1,2.5,1.6l0.6-5.2h4.8l-2.1,17.7h-5l0.4-3.1h-0.1
				c-1,1.9-2.4,3.4-4.7,3.4C127.41,54,126.01,52.5,126.01,49.5z M135.51,44.4c0-1.3-0.3-2-1.1-2c-1.6,0-3.3,3.5-3.3,6.5
				c0,1.3,0.3,2,1.1,2C133.81,50.9,135.51,47.4,135.51,44.4z"/>
			<path class="st1" d="M141.51,47.9c0-4.5,2.8-8.4,8.2-8.4c3.7,0,6.2,1.8,6.2,6c0,4.5-2.8,8.4-8.3,8.4
				C144.01,54,141.51,52.2,141.51,47.9z M150.91,45c0-1.9-0.5-2.8-1.4-2.8c-1.6,0-2.8,2.8-2.8,6.4c0,1.9,0.5,2.8,1.4,2.8
				C149.61,51.4,150.91,48.5,150.91,45z"/>
		</g>
		<g>
			<path class="st1" d="M144.81,37.3c0,0.7-0.6,1.3-1.3,1.3s-1.3-0.6-1.3-1.3s0.6-1.3,1.3-1.3S144.81,36.5,144.81,37.3z
				 M142.41,37.3c0,0.6,0.5,1.1,1.1,1.1s1.1-0.5,1.1-1.1s-0.5-1.1-1.1-1.1S142.41,36.7,142.41,37.3z M144.01,37
				c0,0.2-0.2,0.4-0.3,0.4l0.4,0.6h-0.3l-0.3-0.6h-0.3V38h-0.2v-1.5h0.6C143.91,36.5,144.01,36.7,144.01,37z M143.21,36.7v0.5h0.3
				c0.2,0,0.3-0.1,0.3-0.3s-0.1-0.2-0.3-0.2H143.21z"/>
		</g>
	</g>
</g>
</svg>
